<?xml version="1.0" encoding="utf-8"?>
<!-- Generator: Adobe Illustrator 23.0.1, SVG Export Plug-In . SVG Version: 6.00 Build 0)  -->
<svg version="1.1" id="Layer_1" focusable="false" xmlns="http://www.w3.org/2000/svg" xmlns:xlink="http://www.w3.org/1999/xlink"
	 x="0px" y="0px" viewBox="0 0 640 512" style="enable-background:new 0 0 640 512;" xml:space="preserve">
<path d="M592,0H48C21.5,0,0,21.5,0,48v416c0,26.5,21.5,48,48,48h544c26.5,0,48-21.5,48-48V48C640,21.5,618.5,0,592,0z M608,464
	c0,8.8-7.2,16-16,16H48c-8.8,0-16-7.2-16-16V48c0-8.8,7.2-16,16-16h544c8.8,0,16,7.2,16,16V464z"/>
<g>
	<rect x="32.4" y="120" width="575.3" height="30"/>
</g>
</svg>
